# File created by Blade
# Date/Time:  Wed Jan 21 18:02:19 2015
# Frame Rate: 120.000 fps
#------------------------------------------------------
:FULLY-SPECIFIED
:DEGREES
642
root 22.956546 35.564011 -21.481886 -181.430256 2.222226 -179.295223
Spine -1.884746 11.653807 -5.967067
Head 3.137949 -11.432717 4.207854
LeftShoulder -6.319400 -21.946013 -2.656736
LeftArm -7.192267 25.434051 -77.326681
LeftForeArm -1.048416 -0.000000 6.525928
LeftHand -1.504318 -0.000000 -1.167753
LeftHandThumb1 -26.253704 0.000000 33.147579
RightShoulder -6.373952 -14.502760 11.004381
RightArm 26.287098 -32.545336 57.953808
RightForeArm -26.538765 -0.000000 24.385181
RightHand 0.337829 0.000000 9.441555
RightHandThumb1 -24.326973 -0.000000 -32.862282
LeftUpLeg -7.158598 4.416795 -2.696102
LeftLeg 26.286465 -0.000000 -0.000000
LeftFoot -35.009704 20.647979 -13.348853
LeftToeBase 19.305142 -0.000000 -0.000000
RightUpLeg 3.206731 -16.272797 6.358432
RightLeg 4.806751 -0.000000 -0.000000
RightFoot -27.075249 -24.146413 17.503800
RightToeBase 24.996626 -0.000000 -0.000000
643
root 22.947501 35.560080 -21.484850 -181.447920 2.247341 -179.286542
Spine -1.787560 11.563326 -5.941798
Head 3.189104 -11.441997 4.251448
LeftShoulder -6.232576 -22.004867 -2.695181
LeftArm -7.054543 25.260897 -77.265660
LeftForeArm -0.540143 -0.000000 6.328967
LeftHand -1.430429 -0.000000 -1.193582
LeftHandThumb1 -26.253704 0.000000 33.147579
RightShoulder -6.393875 -14.500425 10.971653
RightArm 26.244852 -32.515420 58.027129
RightForeArm -26.589300 -0.000000 24.369185
RightHand 0.496292 -0.000000 9.443499
RightHandThumb1 -24.326973 -0.000000 -32.862282
LeftUpLeg -7.196520 4.627177 -2.706729
LeftLeg 26.258527 -0.000000 -0.000000
LeftFoot -34.972438 20.429405 -13.311410
LeftToeBase 18.956775 -0.000000 -0.000000
RightUpLeg 3.166718 -16.307460 6.330243
RightLeg 4.957904 -0.000000 -0.000000
RightFoot -27.152426 -23.979623 17.539085
RightToeBase 25.064215 -0.000000 -0.000000
644
root 22.933368 35.555409 -21.489499 -181.491184 2.232775 -179.270273
Spine -1.657140 11.354320 -5.884953
Head 3.345168 -11.382062 4.188666
LeftShoulder -6.175362 -22.113211 -2.691125
LeftArm -7.055939 25.233614 -77.297548
LeftForeArm -0.344777 -0.000000 6.238633
LeftHand -1.389799 0.000000 -1.102569
LeftHandThumb1 -26.253704 0.000000 33.147579
RightShoulder -6.322707 -14.450037 10.899995
RightArm 26.102995 -32.465551 58.165551
RightForeArm -26.657273 -0.000000 24.395984
RightHand 0.477135 -0.000000 9.490169
RightHandThumb1 -24.326973 -0.000000 -32.862282
LeftUpLeg -7.201230 4.769040 -2.712272
LeftLeg 26.222852 -0.000000 -0.000000
LeftFoot -34.977297 20.225193 -13.308408
LeftToeBase 18.996761 -0.000000 -0.000000
RightUpLeg 3.140598 -16.433039 6.284101
RightLeg 5.144428 -0.000000 -0.000000
RightFoot -27.223751 -23.756772 17.530125
RightToeBase 25.075038 -0.000000 -0.000000
645
root 22.914594 35.549346 -21.489791 -181.502014 2.260866 -179.251868
Spine -1.522704 11.198456 -5.824524
Head 3.346434 -11.289852 4.184236
LeftShoulder -6.136428 -22.220897 -2.686472
LeftArm -6.995012 25.229808 -77.334416
LeftForeArm 0.007512 -0.000000 6.114863
LeftHand -1.360847 0.000000 -1.072097
LeftHandThumb1 -26.253704 0.000000 33.147579
RightShoulder -6.319439 -14.374131 10.847283
RightArm 26.018905 -32.454822 58.243666
RightForeArm -26.689602 -0.000000 24.362483
RightHand 0.643175 -0.000000 9.519100
RightHandThumb1 -24.326973 -0.000000 -32.862282
LeftUpLeg -7.235647 4.842848 -2.728065
LeftLeg 26.167159 -0.000000 -0.000000
LeftFoot -34.952671 20.066130 -13.285245
LeftToeBase 19.093557 -0.000000 -0.000000
RightUpLeg 3.069899 -16.432603 6.251450
RightLeg 5.336368 -0.000000 -0.000000
RightFoot -27.334749 -23.597787 17.542163
RightToeBase 25.152960 -0.000000 -0.000000
646
root 22.896262 35.543181 -21.492216 -181.534904 2.280659 -179.196882
Spine -1.357081 11.010540 -5.717331
Head 3.373655 -11.145678 4.145175
LeftShoulder -6.031137 -22.352404 -2.692096
LeftArm -6.975501 25.046538 -77.366215
LeftForeArm 0.363785 -0.000000 5.942139
LeftHand -1.300453 -0.000000 -1.098030
LeftHandThumb1 -26.253704 0.000000 33.147579
RightShoulder -6.281340 -14.317944 10.795521
RightArm 25.893033 -32.362588 58.343193
RightForeArm -26.775950 -0.000000 24.421873
RightHand 0.700133 0.000000 9.578069
RightHandThumb1 -24.326973 -0.000000 -32.862282
LeftUpLeg -7.276221 4.866981 -2.705370
LeftLeg 26.168132 -0.000000 -0.000000
LeftFoot -34.912945 19.911095 -13.356467
LeftToeBase 18.989581 -0.000000 -0.000000
RightUpLeg 3.019082 -16.382631 6.255278
RightLeg 5.541408 -0.000000 -0.000000
RightFoot -27.449861 -23.482180 17.631424
RightToeBase 25.174576 -0.000000 -0.000000
647
root 22.880087 35.535365 -21.495182 -181.594105 2.273851 -179.094580
Spine -1.149272 10.796794 -5.538356
Head 3.404313 -11.029370 4.072731
LeftShoulder -5.915770 -22.439812 -2.741834
LeftArm -6.891998 24.931219 -77.362855
LeftForeArm 0.671002 0.000000 5.793681
LeftHand -1.310580 0.000000 -1.080930
LeftHandThumb1 -26.253704 0.000000 33.147579
RightShoulder -6.231701 -14.270611 10.708927
RightArm 25.777177 -32.273078 58.454209
RightForeArm -26.846543 -0.000000 24.456771
RightHand 0.595374 -0.000000 9.747285
RightHandThumb1 -24.326973 -0.000000 -32.862282
LeftUpLeg -7.333725 4.892067 -2.624271
LeftLeg 26.258249 -0.000000 -0.000000
LeftFoot -34.895882 19.654992 -13.492308
LeftToeBase 18.913829 -0.000000 -0.000000
RightUpLeg 2.998335 -16.315016 6.307674
RightLeg 5.744675 -0.000000 -0.000000
RightFoot -27.603380 -23.402363 17.768256
RightToeBase 25.177097 -0.000000 -0.000000
648
root 22.857690 35.527748 -21.498891 -181.672602 2.243919 -179.010936
Spine -0.872882 10.524157 -5.382701
Head 3.316206 -10.787965 4.077455
LeftShoulder -5.819114 -22.660704 -2.752388
LeftArm -6.919120 24.717179 -77.419207
LeftForeArm 1.001190 -0.000000 5.603100
LeftHand -1.233661 -0.000000 -1.165365
LeftHandThumb1 -26.253704 0.000000 33.147579
RightShoulder -6.201162 -14.207953 10.653441
RightArm 25.701619 -32.163489 58.511937
RightForeArm -27.062717 -0.000000 24.530190
RightHand 0.517104 -0.000000 9.744741
RightHandThumb1 -24.326973 -0.000000 -32.862282
LeftUpLeg -7.261791 4.732978 -2.568180
LeftLeg 26.134552 -0.000000 -0.000000
LeftFoot -34.857714 19.569300 -13.382977
LeftToeBase 18.960803 -0.000000 -0.000000
RightUpLeg 3.002112 -16.256039 6.326887
RightLeg 5.934146 -0.000000 -0.000000
RightFoot -27.727079 -23.345241 17.882272
RightToeBase 25.189268 -0.000000 -0.000000
649
root 22.836519 35.519323 -21.497820 -181.714260 2.186631 -178.924553
Spine -0.629405 10.275774 -5.240533
Head 3.230957 -10.734716 4.098540
LeftShoulder -5.628028 -22.719803 -2.811706
LeftArm -6.803465 24.644525 -77.406297
LeftForeArm 1.147199 -0.000000 5.458483
LeftHand -1.148490 -0.000000 -1.257023
LeftHandThumb1 -26.253704 0.000000 33.147579
RightShoulder -6.220388 -14.132774 10.614016
RightArm 25.625335 -32.081156 58.575250
RightForeArm -27.021315 -0.000000 24.560277
RightHand 0.620840 -0.000000 9.755387
RightHandThumb1 -24.326973 -0.000000 -32.862282
LeftUpLeg -7.222257 4.365443 -2.518909
LeftLeg 25.994174 -0.000000 -0.000000
LeftFoot -34.821327 19.555151 -13.362929
LeftToeBase 18.858086 -0.000000 -0.000000
RightUpLeg 2.950617 -16.212979 6.367914
RightLeg 6.133368 -0.000000 -0.000000
RightFoot -27.866933 -23.328942 17.978566
RightToeBase 25.220163 -0.000000 -0.000000
650
root 22.807863 35.510910 -21.504058 -181.880399 2.191342 -178.809530
Spine -0.202952 10.020243 -5.003811
Head 3.053817 -10.591085 4.080724
LeftShoulder -5.482753 -22.921735 -2.887848
LeftArm -6.779562 24.430097 -77.426621
LeftForeArm 1.305789 -0.000000 5.284826
LeftHand -1.118908 0.000000 -1.339442
LeftHandThumb1 -26.253704 0.000000 33.147579
RightShoulder -6.153754 -14.046147 10.533489
RightArm 25.552552 -31.954520 58.608475
RightForeArm -27.027208 0.000000 24.618623
RightHand 0.592150 0.000000 9.896883
RightHandThumb1 -24.326973 -0.000000 -32.862282
LeftUpLeg -7.033881 4.200335 -2.427653
LeftLeg 25.824163 -0.000000 -0.000000
LeftFoot -34.705475 19.485310 -13.175803
LeftToeBase 18.611910 -0.000000 -0.000000
RightUpLeg 3.020977 -16.158150 6.386026
RightLeg 6.364546 -0.000000 -0.000000
RightFoot -27.971697 -23.289005 18.088150
RightToeBase 25.158979 -0.000000 -0.000000
651
root 22.772714 35.501349 -21.498480 -181.913176 2.184645 -178.750315
Spine 0.074769 9.720495 -4.866985
Head 2.909021 -10.322250 4.092670
LeftShoulder -5.338917 -23.128964 -2.932867
LeftArm -6.774100 24.134846 -77.456052
LeftForeArm 1.604713 0.000000 5.088172
LeftHand -1.031229 0.000000 -1.415297
LeftHandThumb1 -26.253704 0.000000 33.147579
RightShoulder -6.084841 -14.022642 10.471302
RightArm 25.511665 -31.784557 58.644807
RightForeArm -27.032381 0.000000 24.650380
RightHand 0.645066 0.000000 9.855945
RightHandThumb1 -24.326973 -0.000000 -32.862282
LeftUpLeg -7.005023 4.190363 -2.392731
LeftLeg 25.658410 -0.000000 -0.000000
LeftFoot -34.539572 19.129719 -13.024569
LeftToeBase 19.079099 -0.000000 -0.000000
RightUpLeg 2.934373 -16.066867 6.391192
RightLeg 6.583413 -0.000000 -0.000000
RightFoot -28.057561 -23.349620 18.049987
RightToeBase 25.265730 -0.000000 -0.000000
652
root 22.739533 35.491144 -21.493625 -181.935209 2.236154 -178.678039
Spine 0.358624 9.519054 -4.733197
Head 2.684208 -10.183731 4.108590
LeftShoulder -5.163788 -23.276981 -2.986031
LeftArm -6.692142 24.036272 -77.476991
LeftForeArm 1.685514 0.000000 4.909838
LeftHand -1.019543 -0.000000 -1.417321
LeftHandThumb1 -26.253704 0.000000 33.147579
RightShoulder -6.115700 -13.953633 10.428457
RightArm 25.506146 -31.696075 58.662998
RightForeArm -26.993040 -0.000000 24.663281
RightHand 0.631168 -0.000000 9.709074
RightHandThumb1 -24.326973 -0.000000 -32.862282
LeftUpLeg -6.986603 4.025906 -2.362230
LeftLeg 25.506152 -0.000000 -0.000000
LeftFoot -34.497536 19.020544 -13.039120
LeftToeBase 18.817738 -0.000000 -0.000000
RightUpLeg 2.843300 -15.926621 6.420766
RightLeg 6.788277 -0.000000 -0.000000
RightFoot -28.160874 -23.418395 18.038289
RightToeBase 25.242211 -0.000000 -0.000000
